<?xml version="1.0" encoding="utf-8"?>
<!-- Generator: Adobe Illustrator 18.1.1, SVG Export Plug-In . SVG Version: 6.00 Build 0)  -->
<svg version="1.1" id="图层_1" xmlns:sketch="http://www.bohemiancoding.com/sketch/ns"
	 xmlns="http://www.w3.org/2000/svg" xmlns:xlink="http://www.w3.org/1999/xlink" x="0px" y="0px" viewBox="-459 261 40 40"
	 enable-background="new -459 261 40 40" xml:space="preserve">
<path sketch:type="MSShapeGroup" fill="#FFFFFF" d="M-458.9,281c0-11,8.8-20,19.7-20s19.7,9,19.7,20s-8.8,20-19.7,20
	S-458.9,292-458.9,281z"/>
<g>
	<g>
		<path fill="#FEFEFE" d="M-424.1,279.2c0,4.7,0,9.3,0,14c0,0.5-0.1,0.6-0.6,0.6c-5.1,0-10.3,0-15.4,0c-0.1-0.1-0.1-0.2,0-0.3
			c0.3-0.2,0.7-0.2,1-0.3c3-0.4,5.8-1.5,8.1-3.6c0.9-0.6,1.4-1.5,1.8-2.5c0.4-0.9,0.4-1.8,0.2-2.7c-0.3-0.9-0.9-1.5-1.7-1.9
			c-1.5-0.5-2.4-1.1-1.9-3c0.4-1.5-0.5-2.3-2.1-2.3c-1.2,0-2.4,0.2-3.5,0.8c-0.4,0.2-0.9,0.5-1.4,0.2c-0.5-0.4-0.3-0.9-0.3-1.4
			c0.3-2.2-0.8-3.2-3-2.8c-2.3,0.5-4.2,1.8-5.8,3.3c-1.3,1.2-2.4,2.7-3.4,4.2c-0.7,1-1,2.1-1.4,3.2c-0.1,0.1-0.2,0.1-0.3,0
			c0-4.7,0-9.4,0-14.1c0-0.5,0-0.8,0.7-0.8c9.3,0,18.7,0,28,0c0.6,0,0.7,0.2,0.7,0.7c0,1.9,0,3.8,0,5.7c-0.5,0-0.4-0.4-0.5-0.7
			c-0.4-1-0.9-1.9-1.6-2.7c-0.7-0.7-1.4-1.2-2.3-1.6c-1.3-0.6-2.7-1-4.1-0.9c-0.4,0-0.8,0.1-1.2,0.2c-0.5,0.2-0.9,0.5-0.8,1.1
			c0.2,0.6,0.7,0.7,1.2,0.6c0.8-0.2,1.6-0.3,2.5-0.1c1.1,0.1,1.9,0.7,2.8,1.3c1.8,1.5,2.2,3.4,1.8,5.6c0,0.3-0.2,0.5-0.2,0.8
			c-0.1,0.4,0.1,0.8,0.5,1c0.5,0.2,0.8-0.1,1-0.4c0.2-0.2,0.2-0.5,0.3-0.7C-424.6,279.6-424.6,279.2-424.1,279.2z"/>
		<path fill="#FEFEFE" d="M-442.9,293.8c-3.3,0-6.7,0-10,0c-0.5,0-0.6-0.1-0.6-0.6c0-2.1,0-4.3,0-6.4c0.1-0.1,0.2-0.1,0.3,0
			c0.1,0.1,0.2,0.2,0.2,0.4c0.2,0.8,0.5,1.6,1.1,2.2c1,1.3,2.4,2.1,3.8,2.7c1.3,0.6,2.7,0.9,4.1,1.1c0.4,0.1,0.8,0.1,1.1,0.3
			C-442.8,293.6-442.8,293.7-442.9,293.8z"/>
		<path fill="#E57817" d="M-426.1,272.8c1.1,0.9,1.5,2.3,2,3.6c0,0.1,0,0.1,0,0.2c-0.2,0.8-0.2,1.6,0,2.4c0,0.1,0,0.1,0,0.2
			c-0.5,0.4-0.3,1-0.6,1.4c-0.3,0.6-0.7,1-1.4,0.7c-0.7-0.3-0.9-0.8-0.7-1.5c0.8-2.3,0.4-4.4-1.5-6
			C-427.7,273.1-427,272.8-426.1,272.8z"/>
		<path fill="#E3C7C5" d="M-442.9,293.8c0-0.1,0-0.1,0-0.2c0.9-0.5,1.9-0.5,2.8,0c0,0.1,0,0.1,0,0.2
			C-441,293.8-442,293.8-442.9,293.8z"/>
		<path fill="#F1A970" d="M-424.1,279c-0.3-0.8-0.3-1.6,0-2.4C-424.1,277.4-424.1,278.2-424.1,279z"/>
		<path fill="#E47875" d="M-453.3,286.8c-0.1,0-0.1,0-0.2,0c0-0.7,0-1.3,0-2l0.1-0.1l0.1,0C-452.8,285.4-452.8,286.1-453.3,286.8z"
			/>
		<path fill="#D9251C" d="M-453.3,286.8c0-0.7,0-1.4,0-2.1c0.1-2,1.4-3.5,2.5-5c1.8-2.4,3.9-4.4,6.8-5.6c0.6-0.2,1.2-0.4,1.8-0.5
			c2-0.3,3.3,1.1,2.9,3.1c-0.1,0.4-0.4,0.9,0.1,1.3c0.4,0.3,0.8-0.1,1.2-0.3c1.1-0.5,2.3-0.7,3.6-0.8c1.8-0.1,3,1.5,2.3,3.3
			c-0.4,1-0.2,1.4,0.8,1.6c0.4,0.1,0.8,0.4,1.1,0.6c0,0.4-0.4,0.3-0.6,0.3c-1.1,0-2,0.3-3,0.7c-0.2,0-0.4-0.1-0.6-0.3
			c-2.4-2.4-5.4-2.5-8.5-2.3c-1.9,0.2-3.7,0.9-5.3,2.1c-1,0.8-1.8,1.8-2.2,3c-0.6,1.2-1.8,0.9-2.7,1.1
			C-453.3,287.1-453.3,286.9-453.3,286.8z"/>
		<path fill="#A42924" d="M-440.1,293.6c-0.9,0-1.9,0-2.8,0c-1.9-0.2-3.7-0.5-5.4-1.4c-0.2-0.4,0-0.6,0.3-0.7c0.3-0.1,0.7-0.2,1-0.4
			c0.6-0.1,1.2,0.1,1.8,0.2c2.8,0.5,5.6,0.5,8.2-1c0.7-0.4,1.2-1,1.9-1.3c0,0,0.1,0,0.1,0c0.8,1.1,1.7,0.6,2.7,0.4
			c0.3-0.1,0.6-0.2,0.9-0.2c0.4-0.1,0.7,0.1,0.8,0.5C-433.3,292.3-436.6,293.3-440.1,293.6z"/>
		<path fill="#B12923" d="M-430.7,289.8c-0.4-0.6-0.9-0.4-1.3-0.2c-1,0.5-2.1,0.2-3.1,0.5c-0.3-0.5,0.5-0.5,0.2-0.9
			c0.1-0.8,0.6-1.3,1.2-1.8c1.4-0.3,2.7-0.7,4-0.8c0.6,0,0.9,0.2,0.7,0.8C-429.3,288.4-429.9,289.1-430.7,289.8z"/>
		<path fill="#C02721" d="M-428.9,287.4c-0.1-0.4-0.2-0.6-0.7-0.6c-1.4,0.1-2.7,0.7-4,0.8c-0.1-0.9,0.1-1.8,0.4-2.7
			c1.2-0.4,2.5-0.6,3.7-0.8c0.3-0.1,0.6,0,0.9,0.2C-428.3,285.4-428.5,286.4-428.9,287.4z"/>
		<path fill="#F1A809" d="M-430.9,272.6c-0.8-0.2-1.7-0.1-2.5,0.1c-0.8,0.2-1.3-0.1-1.5-0.7c-0.3-0.7,0.2-1.2,0.9-1.4
			c2-0.6,3.9-0.3,5.7,0.7C-429,271.9-430,272.1-430.9,272.6z"/>
		<path fill="#D0261F" d="M-428.7,284.4c-1.6-0.1-3.1,0.7-4.6,0.6c-0.6-0.4-0.8-0.9-0.6-1.6c0.9-0.8,2-0.8,3.1-0.9
			c0.2,0,0.4,0.1,0.5-0.1C-429.5,282.9-428.9,283.5-428.7,284.4z"/>
		<path fill="#EB8E11" d="M-430.9,272.6c0.7-0.9,1.7-1,2.6-1.4c0.9,0.4,1.6,0.9,2.1,1.6c-0.7,0.3-1.4,0.6-2.2,0.9
			C-429.1,273.3-429.9,272.8-430.9,272.6z"/>
		<path fill="#E57716" d="M-429.8,275.4c1,0.7,1.5,2.5,1,3.6c-0.2,0.4-0.4,0.6-0.8,0.5c-0.4-0.1-0.6-0.4-0.5-0.8
			c0-0.8,0.2-1.7-0.6-2.4C-430.8,275.7-430.3,275.5-429.8,275.4z"/>
		<path fill="#F0A40E" d="M-431.7,275.9c-0.4,0-0.8,0.1-1.2,0.1c-0.5,0-0.8-0.2-0.8-0.7c0-0.4,0.2-0.7,0.6-0.8
			c0.9-0.2,1.7-0.2,2.5,0.2C-430.9,275.3-431.5,275.4-431.7,275.9z"/>
		<path fill="#EB9016" d="M-431.7,275.9c-0.1-0.8,0.7-0.8,1.1-1.1c0.4,0.1,0.7,0.3,0.9,0.6c-0.3,0.3-0.8,0.5-0.9,1
			C-431,276.2-431.4,276.1-431.7,275.9z"/>
		<path fill="#B82823" d="M-446.8,291.4c-0.3,0.2-0.6,0.5-1,0.4c-0.3,0-0.5,0.2-0.5,0.5c-1.5-0.7-2.9-1.4-3.8-2.8
			c0.3-0.4,0.6-0.4,1-0.4c0.4,0,0.7,0,1.1-0.1C-449,289.8-447.8,290.4-446.8,291.4z"/>
		<path fill="#CA2720" d="M-450.1,288.9c0,0.5-0.3,0.4-0.6,0.4c-0.5-0.1-1,0-1.5,0.1c-0.7-0.6-0.9-1.4-1.1-2.2
			c0.3-0.3,0.7-0.4,1.1-0.4c0.6,0,1.2-0.1,1.4-0.8C-450.3,286.9-450.1,287.9-450.1,288.9z"/>
		<path fill="#FEFEFE" d="M-450.1,288.9c-0.5-0.9-0.8-1.9-0.7-2.9c0.7-2.3,2.4-3.6,4.5-4.4c3.5-1.4,7-1.4,10.4,0.3
			c0.8,0.4,1.3,1,1.9,1.6c0.2,0.5,0.4,1.1,0.6,1.6c0.1,0.9-0.1,1.8-0.4,2.6c-0.4,0.5-0.8,1.1-1.2,1.6c-3.4,3.1-7.3,3.3-11.5,2.3
			c-0.2,0-0.3-0.1-0.5-0.1C-448,290.7-449.2,290.1-450.1,288.9z"/>
		<path fill="#1F1A17" d="M-442.9,290.8c-0.8,0-1.7-0.1-2.4-0.4c-1.7-0.6-2.4-2.8-1.6-4.7c1.1-2.7,4.8-3.8,7.3-2.1
			c1.2,0.8,1.7,1.9,1.6,3.3c-0.2,1.7-1.1,2.9-2.6,3.5C-441.4,290.6-442.2,290.8-442.9,290.8z"/>
		<path fill="#FBFAFA" d="M-442.7,287.5c0,0.8-0.7,1.6-1.5,1.6c-0.9,0-1.6-0.6-1.6-1.4c0-0.7,0.9-1.5,1.8-1.5
			C-443.4,286.2-442.7,286.8-442.7,287.5z"/>
		<path fill="#E8E9E7" d="M-441.7,285.6c0.4,0,0.7,0.2,0.7,0.6c0,0.4-0.2,0.6-0.6,0.6c-0.3,0-0.6-0.2-0.6-0.5
			C-442.3,285.8-442.1,285.6-441.7,285.6z"/>
	</g>
</g>
<path id="reflec" sketch:type="MSShapeGroup" fill-opacity="8.000000e-002" d="M-419.4,281c0,11-8.8,20-19.7,20
	c-4,0-7.8-1.2-10.9-3.3l22.6-32.8C-422.6,268.5-419.4,274.4-419.4,281z"/>
</svg>
