<?xml version="1.0" encoding="utf-8"?>
<!-- Generator: Adobe Illustrator 18.1.1, SVG Export Plug-In . SVG Version: 6.00 Build 0)  -->
<svg version="1.1" id="图层_1" xmlns:sketch="http://www.bohemiancoding.com/sketch/ns"
	 xmlns="http://www.w3.org/2000/svg" xmlns:xlink="http://www.w3.org/1999/xlink" x="0px" y="0px" viewBox="0 0 960 560"
	 enable-background="new 0 0 960 560" xml:space="preserve">
<path sketch:type="MSShapeGroup" fill="#AA1818" d="M-257.6,541c0-154,123.2-280,275.8-280S294,387,294,541S170.8,821,18.2,821
	S-257.6,695-257.6,541z"/>
<g>
	<g>
		<path d="M-142.7,735.7c0-129.1,0-258.3,0-387.5c110.5,0,221.1,0,331.6,0c0,129.1,0,258.2,0,387.5
			C78.3,735.7-32.2,735.7-142.7,735.7z M21,512.9c0,0.4,0,0.7,0,1.1c-38,0-75.9,0.1-113.7,4.1c-17.1,1.8-30.6,13.2-34.6,29.9
			c-1.2,5.1-2.2,10.4-2.8,15.6c-3.7,29.5-3.1,59.1-1.9,88.6c0.5,12.8,2.3,25.6,4.7,38.1c3,16.3,16.4,28.4,32.2,30.4
			c5.9,0.8,11.9,1.3,17.9,1.7c51,3.8,102.1,2.9,153.1,2c19.8-0.3,39.6-2,59.3-3.6c17.1-1.4,30.6-13.4,34.3-30.2
			c1.6-7.5,3.3-15.1,3.5-22.7c0.8-26.8,1.6-53.5,1.2-80.3c-0.2-13-2.3-26.1-4.7-39c-3.1-16.4-16.4-28.3-32.7-30.5
			c-3.5-0.5-6.9-0.9-10.4-1C91.2,515.8,56.1,514.3,21,512.9z M-83.5,358.8c0.8,2.9,1.4,5,2.1,7.1c6.7,19.8,13.4,39.6,20.1,59.4
			c3,8.9,4.3,18.1,4,27.6c-0.3,13.1,0,26.2-0.1,39.3c0,3.2,0.7,4.6,4.2,4.4c4.3-0.3,8.7-0.2,13,0c3.3,0.2,4.3-1.1,4.2-4.3
			c-0.1-15.2-0.1-30.4,0.1-45.6c0-3.6,0.6-7.2,1.6-10.7c7.2-23.7,14.6-47.4,21.9-71.1c0.6-1.8,0.9-3.7,1.4-6
			c-6.9,0-13.3-0.1-19.7,0.1c-0.9,0-2.3,1.8-2.6,3c-2.1,7.2-3.9,14.5-5.8,21.8c-2.3,8.8-4.7,17.6-7.3,27.7c-0.8-2.5-1.2-3.8-1.5-5
			c-4-14.7-7.9-29.3-12.1-44c-0.4-1.4-2-3.4-3.1-3.5C-69.7,358.6-76.2,358.8-83.5,358.8z M94.8,486.7c0,2.1,0.1,4,0,5.9
			c-0.3,2.8,0.7,4.1,3.7,3.9c4-0.2,8.1-0.1,12.1,0c2.5,0.1,3.4-0.9,3.4-3.4c0-32.1,0-64.2,0.1-96.3c0-2.6-1-3.4-3.5-3.3
			c-3.1,0.1-6.1,0-9.2,0c-7.7,0.1-6.8-0.8-6.8,6.6c0,22.5,0,44.9,0.1,67.4c0,5.4-4,10.8-9.3,12.4c-3.8,1.2-6-0.2-6.5-4.1
			c-0.2-1.9-0.2-3.9-0.2-5.8c0-23.4,0.1-46.9,0.1-70.3c0-1.3,0.2-2.6-0.1-3.7c-0.2-0.9-1.2-2.2-1.8-2.2c-5.7-0.2-11.4-0.1-17.2-0.1
			c-0.1,1.6-0.3,2.7-0.3,3.8c0,26.8,0,53.6,0.2,80.4c0,3.6,0.4,7.3,1.1,10.8c1.1,5.2,4.5,8.7,9.7,8.8c4.2,0.1,8.7-0.6,12.4-2.3
			C87.1,493.3,90.5,489.9,94.8,486.7z M-10.6,445.1C-10.6,445.1-10.6,445.1-10.6,445.1c0,9.5-0.8,19,0.1,28.4
			c1.8,18,17.7,28.1,35.2,23.3c11.2-3.1,18.6-11.3,19.1-24.1c0.8-18.4,0.6-36.8,0-55.1c-0.2-5-2.5-10.5-5.4-14.6
			c-7.2-10.2-17.8-12.3-29.4-9.7c-10.6,2.4-18.4,11.1-19.4,23C-11.2,425.9-10.6,435.5-10.6,445.1z"/>
		<path fill="#FFFFFF" d="M21,512.9c35.1,1.5,70.2,2.9,105.3,4.4c3.5,0.1,7,0.6,10.4,1c16.3,2.2,29.6,14,32.7,30.5
			c2.4,12.8,4.5,26,4.7,39c0.4,26.8-0.4,53.5-1.2,80.3c-0.2,7.6-1.9,15.2-3.5,22.7c-3.7,16.8-17.1,28.8-34.3,30.2
			c-19.7,1.6-39.5,3.3-59.3,3.6c-51.1,0.9-102.1,1.7-153.1-2c-6-0.4-12-1-17.9-1.7c-15.9-2-29.2-14.1-32.2-30.4
			c-2.3-12.6-4.2-25.4-4.7-38.1c-1.2-29.5-1.8-59.1,1.9-88.6c0.7-5.2,1.6-10.5,2.8-15.6c4-16.7,17.6-28.1,34.6-29.9
			c37.8-4,75.8-4.1,113.7-4.1C21,513.6,21,513.2,21,512.9z M45.6,675.8c3.2,2.7,5.7,5.2,8.5,7.1c11.6,7.7,23.5,2.6,26.2-11
			c0.3-1.4,0.5-2.8,0.5-4.1c0.1-20.9,0.3-41.8,0.3-62.8c0-3.3-0.6-6.7-1.4-9.9c-2.4-9.2-9.6-13.9-18.7-11.4
			c-4.4,1.2-8.2,4.5-12.1,6.9c-1,0.6-1.8,1.7-3.5,3.4c0-15.5,0-29.7,0-43.9c-6.1,0-11.9,0-17.9,0c0,45,0,89.7,0,134.5
			c6.1,0,12,0,18.1,0C45.6,681.6,45.6,679,45.6,675.8z M132.6,650.4c0,3.9,0.2,7.4,0,10.8c-0.4,5.3-3.4,8.4-7.9,8.7
			c-4.9,0.3-8.9-2.3-9.4-7.6c-0.6-8-0.2-16-0.2-24.5c11.9,0,24,0,37.2,0c-0.8-12.1-1-23.8-2.5-35.3c-0.9-7.4-5.8-12.9-12.5-16.4
			c-17.6-9.2-38.7,0.9-40.2,20.6c-1.4,18.4-0.7,37.1-0.1,55.6c0.3,9.1,5,16.7,13.5,20.8c10.7,5.1,21.5,5,31.3-2.3
			c8.4-6.3,12.2-19.4,9.1-30.4C145.1,650.4,139.3,650.4,132.6,650.4z M-7.4,584.5c0,2.1,0,3.8,0,5.4c0,22-0.2,44.1,0.1,66.1
			c0.1,5-1.6,8.5-5.4,10.9c-2.4,1.5-5.9,2.9-8.2,2.2c-1.6-0.5-2.8-4.8-2.8-7.4c-0.2-24.3-0.2-48.5-0.2-72.8c0-1.5,0-2.9,0-4.4
			c-6.4,0-12.2,0-18.1,0c-0.1,1.1-0.1,1.9-0.1,2.7c0,26.4-0.1,52.7,0,79.1c0,3.5,0.4,7,1,10.4c1.2,6,5,9.1,11.1,9.5
			c5.6,0.4,10.4-1.7,14.7-5.1c2.6-2,4.9-4.3,8.1-7.1c0,4.1,0,7.3,0,10.4c6.3,0,12.1,0,17.9,0c0-33.6,0-66.8,0-100.1
			C4.6,584.5-1.1,584.5-7.4,584.5z M-67.3,684.8c0-38.9,0-77.3,0-116.3c7.5,0,14.7,0,21.9,0c0-6.5,0-12.4,0-18.4
			c-21.4,0-42.6,0-63.8,0c0,6.2,0,12.3,0,18.7c7.2,0,14.2,0,21.6,0c0,38.9,0,77.4,0,116.1C-80.7,684.8-74.4,684.8-67.3,684.8z"/>
		<path fill="#FFFFFF" d="M-83.5,358.8c7.3,0,13.8-0.2,20.4,0.2c1.1,0.1,2.7,2.1,3.1,3.5c4.1,14.6,8.1,29.3,12.1,44
			c0.3,1.3,0.8,2.5,1.5,5c2.7-10,5-18.9,7.3-27.7c1.9-7.3,3.8-14.6,5.8-21.8c0.3-1.2,1.7-3,2.6-3c6.4-0.3,12.8-0.1,19.7-0.1
			c-0.5,2.4-0.9,4.2-1.4,6c-7.3,23.7-14.7,47.4-21.9,71.1c-1,3.4-1.6,7.1-1.6,10.7c-0.2,15.2-0.2,30.4-0.1,45.6
			c0,3.3-0.9,4.5-4.2,4.3c-4.3-0.2-8.7-0.3-13,0c-3.5,0.2-4.2-1.2-4.2-4.4c0.1-13.1-0.2-26.2,0.1-39.3c0.3-9.5-1-18.6-4-27.6
			c-6.7-19.8-13.4-39.6-20.1-59.4C-82.1,363.8-82.7,361.7-83.5,358.8z"/>
		<path fill="#FFFFFF" d="M94.8,486.7c-4.3,3.2-7.7,6.5-11.8,8.4c-3.8,1.7-8.3,2.4-12.4,2.3c-5.3-0.1-8.7-3.6-9.7-8.8
			c-0.7-3.5-1.1-7.2-1.1-10.8c-0.1-26.8-0.1-53.6-0.2-80.4c0-1.1,0.2-2.2,0.3-3.8c5.8,0,11.5-0.1,17.2,0.1c0.6,0,1.6,1.3,1.8,2.2
			c0.3,1.2,0.1,2.5,0.1,3.7c0,23.4-0.1,46.9-0.1,70.3c0,2-0.1,3.9,0.2,5.8c0.5,3.9,2.7,5.2,6.5,4.1c5.2-1.6,9.3-7,9.3-12.4
			c0-22.5-0.1-44.9-0.1-67.4c0-7.4-0.9-6.5,6.8-6.6c3.1,0,6.1,0.1,9.2,0c2.5-0.1,3.5,0.7,3.5,3.3c-0.1,32.1-0.2,64.2-0.1,96.3
			c0,2.5-0.9,3.5-3.4,3.4c-4-0.1-8.1-0.2-12.1,0c-3,0.1-4-1.1-3.7-3.9C95,490.7,94.8,488.8,94.8,486.7z"/>
		<path fill="#FFFFFF" d="M-10.6,445.1c0-9.6-0.7-19.3,0.2-28.8c1.1-11.9,8.9-20.6,19.4-23c11.6-2.6,22.2-0.5,29.4,9.7
			c2.9,4.1,5.2,9.6,5.4,14.6c0.6,18.4,0.8,36.8,0,55.1c-0.5,12.8-8,21-19.1,24.1c-17.5,4.8-33.3-5.3-35.2-23.3
			C-11.4,464.2-10.6,454.6-10.6,445.1C-10.6,445.1-10.6,445.1-10.6,445.1z M8.1,445.3C8,445.3,8,445.3,8.1,445.3
			c-0.1,7.2-0.2,14.5,0,21.7c0.1,2.6,0.4,5.3,1.2,7.8c1,3.6,3.7,5.5,7.5,5.4c3.8,0,6.4-2,7.4-5.6c0.7-2.5,1.2-5.2,1.2-7.8
			c0.1-14.3,0.1-28.7,0-43c0-2.2-0.3-4.5-0.8-6.6c-1.1-4.5-3.5-6.2-8.6-6.2c-3.9,0-6.1,2.3-7,5.9c-0.5,2.1-0.8,4.4-0.8,6.6
			C8,430.8,8.1,438.1,8.1,445.3z"/>
		<path d="M45.6,675.8c0,3.2,0,5.9,0,8.8c-6.1,0-12,0-18.1,0c0-44.8,0-89.5,0-134.5c6,0,11.8,0,17.9,0c0,14.2,0,28.4,0,43.9
			c1.7-1.7,2.5-2.7,3.5-3.4c4-2.4,7.8-5.7,12.1-6.9c9.1-2.5,16.3,2.2,18.7,11.4c0.8,3.2,1.4,6.6,1.4,9.9c0,20.9-0.1,41.8-0.3,62.8
			c0,1.4-0.3,2.8-0.5,4.1c-2.7,13.6-14.6,18.7-26.2,11C51.3,681,48.8,678.5,45.6,675.8z M45.6,634.7
			C45.6,634.7,45.6,634.7,45.6,634.7c0,9.2-0.1,18.4,0.1,27.6c0,1.7,1,3.8,2.2,4.8c6.8,5.5,13.3,2.8,14.8-5.8c0.3-1.5,0.4-3,0.4-4.6
			c0-14.8,0.1-29.5,0-44.3c0-3-0.6-6.1-1.7-8.9c-1.5-3.7-4.7-4.9-8.6-4c-4.7,1-7.2,3.7-7.2,7.6C45.6,616.4,45.6,625.5,45.6,634.7z"
			/>
		<path d="M132.6,650.4c6.6,0,12.5,0,18.3,0c3,11-0.7,24.1-9.1,30.4c-9.8,7.3-20.6,7.4-31.3,2.3C102,679,97.3,671.4,97,662.3
			c-0.6-18.5-1.3-37.1,0.1-55.6c1.5-19.7,22.6-29.8,40.2-20.6c6.7,3.5,11.6,9,12.5,16.4c1.4,11.5,1.7,23.2,2.5,35.3
			c-13.2,0-25.3,0-37.2,0c0,8.4-0.5,16.5,0.2,24.5c0.4,5.3,4.4,7.8,9.4,7.6c4.5-0.2,7.5-3.3,7.9-8.7
			C132.8,657.8,132.6,654.3,132.6,650.4z M133.6,622.6c-0.3-5.6-0.3-10.7-1.1-15.7c-0.8-5-4.1-7.5-8.6-7.6c-4.5,0-7.9,2.5-8.7,7.4
			c-0.8,5.1-0.8,10.4-1.1,15.9C120.8,622.6,126.8,622.6,133.6,622.6z"/>
		<path d="M-7.4,584.5c6.3,0,12,0,18,0c0,33.3,0,66.5,0,100.1c-5.7,0-11.5,0-17.9,0c0-3.1,0-6.3,0-10.4c-3.2,2.8-5.6,5.1-8.1,7.1
			c-4.3,3.3-9.1,5.4-14.7,5.1c-6.1-0.4-9.9-3.5-11.1-9.5c-0.7-3.4-1-6.9-1-10.4c-0.1-26.4,0-52.7,0-79.1c0-0.8,0.1-1.6,0.1-2.7
			c5.9,0,11.7,0,18.1,0c0,1.4,0,2.9,0,4.4c0,24.3-0.1,48.5,0.2,72.8c0,2.6,1.2,6.8,2.8,7.4c2.3,0.7,5.8-0.7,8.2-2.2
			c3.8-2.4,5.5-5.9,5.4-10.9c-0.3-22-0.1-44.1-0.1-66.1C-7.4,588.2-7.4,586.6-7.4,584.5z"/>
		<path d="M-67.3,684.8c-7,0-13.4,0-20.3,0c0-38.6,0-77.2,0-116.1c-7.5,0-14.4,0-21.6,0c0-6.4,0-12.4,0-18.7c21.2,0,42.4,0,63.8,0
			c0,6,0,12,0,18.4c-7.2,0-14.4,0-21.9,0C-67.3,607.5-67.3,645.9-67.3,684.8z"/>
		<path d="M8.1,445.3c0-7.2-0.1-14.5,0-21.7c0-2.2,0.3-4.5,0.8-6.6c0.9-3.6,3.1-5.9,7-5.9c5.1,0,7.5,1.7,8.6,6.2
			c0.5,2.1,0.8,4.4,0.8,6.6c0.1,14.3,0.1,28.7,0,43c0,2.6-0.5,5.3-1.2,7.8c-1,3.6-3.6,5.5-7.4,5.6c-3.8,0-6.5-1.9-7.5-5.4
			c-0.7-2.5-1.1-5.2-1.2-7.8C7.9,459.8,8,452.6,8.1,445.3C8,445.3,8,445.3,8.1,445.3z"/>
		<path fill="#FFFFFF" d="M45.6,634.7c0-9.2,0-18.4,0-27.6c0-4,2.5-6.7,7.2-7.6c3.9-0.8,7.2,0.3,8.6,4c1.1,2.8,1.7,5.9,1.7,8.9
			c0.2,14.8,0.1,29.5,0,44.3c0,1.5-0.2,3.1-0.4,4.6c-1.5,8.6-8,11.3-14.8,5.8c-1.3-1-2.2-3.2-2.2-4.8
			C45.5,653.1,45.6,643.9,45.6,634.7C45.6,634.7,45.6,634.7,45.6,634.7z"/>
		<path fill="#FFFFFF" d="M133.6,622.6c-6.8,0-12.7,0-19.5,0c0.4-5.5,0.3-10.8,1.1-15.9c0.8-4.9,4.2-7.4,8.7-7.4
			c4.4,0,7.8,2.6,8.6,7.6C133.3,611.9,133.2,617,133.6,622.6z"/>
	</g>
</g>
<path id="reflec" sketch:type="MSShapeGroup" fill-opacity="8.000000e-002" d="M295.4,541c0,154-123.2,280-275.8,280
	c-56,0-109.2-16.8-152.6-46.2l316.4-459.2C250.6,366,295.4,448.6,295.4,541z"/>
</svg>
