<?xml version="1.0" encoding="utf-8"?>
<!-- Generator: Adobe Illustrator 18.1.1, SVG Export Plug-In . SVG Version: 6.00 Build 0)  -->
<svg version="1.1" id="图层_1" xmlns:sketch="http://www.bohemiancoding.com/sketch/ns"
	 xmlns="http://www.w3.org/2000/svg" xmlns:xlink="http://www.w3.org/1999/xlink" x="0px" y="0px" viewBox="-459 261 40 40"
	 enable-background="new -459 261 40 40" xml:space="preserve">
<path sketch:type="MSShapeGroup" fill="#BC3131" d="M-458.9,281c0-11,8.8-20,19.7-20s19.7,9,19.7,20s-8.8,20-19.7,20
	S-458.9,292-458.9,281z"/>
<g>
	<g>
		<path fill-rule="evenodd" clip-rule="evenodd" fill="#FFFFFF" d="M-444.1,277.2v-4.6c0.7-2.1,1.3-4.3,2-6.4h-1.6
			c-0.4,1.4-0.7,2.9-1.1,4.3h-0.1c-0.4-1.4-0.8-2.9-1.2-4.3h-1.7c1.3,3.3,2.2,6.1,2.1,11.1H-444.1z M-439.2,277.3
			c0.5-0.1,1.1-0.6,1.4-1c0.6-1.2,0.5-5.6-0.1-6.6c-0.4-0.6-1.2-0.9-2.3-0.8c-0.6,0.3-1.1,0.5-1.4,1c-0.4,0.6-0.3,1.8-0.3,2.8
			C-442,275.1-442.1,277.9-439.2,277.3z M-440.4,270.4c0.2-0.1,0.3-0.2,0.5-0.3c0.2,0,0.4,0.1,0.5,0.1c0.6,1.1,0.5,4.2,0.1,5.5
			C-441.1,276.9-440.8,271.7-440.4,270.4z M-436,277c0.7,0.5,1.4,0.2,2-0.1l0.5-0.5v0.9h1.5v-8.3h-1.5c0,2.1,0,4.2,0.1,6.3
			c-0.3,0.4-0.5,0.6-1,0.8c-0.1,0-0.2-0.1-0.3-0.1c0-2.3,0-4.6-0.1-7h-1.5C-435.6,271.4-436.6,274.8-436,277z M-428.1,280.1
			c-1.5-1.9-12.3-1.3-16.2-1.3c-2.3,0.9-5.1-0.5-6.6,1.3c-1.4,1.7-1.6,10.8-0.6,13.5c0.3,0.8,1,1.5,1.8,1.8c1,0.4,2.2,0.2,3.4,0.3
			c2.2,0,4.5,0.1,6.7,0.1c2.3,0,4.6-0.1,6.9-0.1c2-0.3,3.7,0,4.6-1.2c0.9-1.2,1-3.5,1-5.7C-427,285.7-426.7,281.9-428.1,280.1z
			 M-444.8,283.2h-1.8v9.5h-1.8v-9.5h-1.8v-1.6h5.3V283.2z M-440.2,292.7h-1.6v-0.8c-0.8,0.7-1.6,1.3-2.7,0.5
			c-0.5-2.2-0.2-5.4-0.2-8h1.6c0,2.3,0,4.6,0.1,6.8v0.1c0.7,0,0.7-0.2,1.1-0.5c0-2.2,0-4.3,0.1-6.5h1.6V292.7z M-435.2,292.6
			c-0.8,0.7-1.7-0.1-2.2-0.5v0.7h-1.6v-11.1h1.6v3.5C-432.9,281.6-434.3,292.2-435.2,292.6z M-428.8,288.9h-3c0,0.8,0,1.6,0.1,2.3
			c0.3,0.2,0.5,0.3,0.9,0.1c0.4-0.2,0.4-0.8,0.3-1.5h1.6c0.1,2.2-1.5,4-3.6,2.7c-1.3-0.8-1.6-6-0.5-7.4c0.3-0.4,1-0.7,1.7-0.8
			C-428.7,284.3-428.7,286.4-428.8,288.9z M-436.4,285.8c-0.2,0-0.4,0-0.6-0.1c0,0-0.1,0-0.1,0.1c-0.6,1-0.2,3.8-0.2,5.3
			c0.1,0.1,0.2,0.1,0.3,0.2h0.6c0.5-0.3,0.5-4.8,0.1-5.3C-436.4,285.8-436.3,285.9-436.4,285.8z M-431.4,285.7l-0.1,0.1
			c-0.2,0.4-0.3,1-0.3,1.7h1.4c0-0.7-0.1-1.2-0.3-1.7L-431.4,285.7z"/>
	</g>
</g>
<path id="reflec" sketch:type="MSShapeGroup" fill-opacity="8.000000e-002" d="M-419.4,281c0,11-8.8,20-19.7,20
	c-4,0-7.8-1.2-10.9-3.3l22.6-32.8C-422.6,268.5-419.4,274.4-419.4,281z"/>
</svg>
